#N canvas 554 264 627 432 12;
#X obj 30 110 osclisten;
#X obj 180 350 udpsend;
#X obj 180 379 tgl 15 0 empty empty connected 17 7 0 10 #fcfcfc #000000
#000000 1 1;
#X obj 30 153 unpackOSC;
#X obj 180 80 hsl 128 15 0 1 0 0 empty empty empty -2 -8 0 10 #fcfcfc
#000000 #000000 0 1;
#X msg 180 104 /1/fader1 \$1;
#X obj 180 133 packOSC;
#X obj 30 180 routeOSC /1/fader1;
#X obj 30 237 hsl 128 15 0 1 0 0 empty empty empty -2 -8 0 10 #fcfcfc
#000000 #000000 0 1;
#X obj 30 290 spigot;
#X obj 30 319 print osc;
#X obj 69 264 tgl 15 0 empty empty empty 17 7 0 10 #fcfcfc #000000
#000000 0 1;
#X obj 30 80 bng 15 250 50 0 empty empty listen 17 7 0 10 #fcfcfc #000000
#000000;
#X obj 525 221 tgl 15 0 empty empty empty 17 7 0 10 #fcfcfc #000000
#000000 1 1;
#N canvas 1040 367 450 394 connect 0;
#X msg 40 260 disconnect;
#X obj 40 110 unpack s f;
#X symbolatom 40 170 16 0 0 0 - - -, f 16;
#X floatatom 170 169 5 0 0 0 - - -, f 5;
#X msg 40 230 connect \$1 \$2;
#X obj 40 197 pack s f;
#X obj 100 80 t b b;
#X obj 40 10 inlet;
#X obj 40 330 outlet;
#X obj 190 150 tgl 15 0 empty empty empty 17 7 0 10 #fcfcfc #000000
#000000 1 1;
#X msg 262 116 set 1;
#X obj 230 170 sel 1 0;
#X obj 40 80 t a b b;
#X connect 0 0 8 0;
#X connect 1 0 2 0;
#X connect 1 1 3 0;
#X connect 2 0 5 0;
#X connect 3 0 5 1;
#X connect 4 0 8 0;
#X connect 5 0 4 0;
#X connect 6 0 2 0;
#X connect 6 1 3 0;
#X connect 7 0 12 0;
#X connect 9 0 11 0;
#X connect 10 0 9 0;
#X connect 11 0 6 0;
#X connect 11 1 0 0;
#X connect 12 0 1 0;
#X connect 12 1 10 0;
#X connect 12 2 0 0;
#X coords 0 -1 1 1 175 47 1 37 147;
#X restore 180 210 pd connect;
#X obj 525 115 tgl 15 0 empty empty publish 17 7 0 10 #fcfcfc #000000
#000000 1 1;
#X msg 333 64 Android (TouchOSC);
#X obj 389 115 tgl 15 0 empty empty browse 17 7 0 10 #fcfcfc #000000
#000000 1 1;
#X obj 329 111 bng 15 250 50 0 empty empty empty 0 -10 0 10 #fcfcfc
#000000 #000000;
#X obj 389 144 oscbrowser;
#X text 30 10 osclisten: (1) Connect your mobile OSC app to this patch
\, (2) push the listen button below \, and (3) wiggle one of the OSC
controls in the app. Pd should be connected to the app now., f 81
;
#X text 130 270 displays the current connection, f 22;
#X text 300 260 oscbrowser: (1) Activate the publish toggle to have
Pd publish its address. On the mobile app \, use the Pd service as
the destination for outgoing messages. (2) Activate the browse toggle
to discover OSC services on the network. The leftmost button lights
up as soon as new data is available. The other two buttons can then
be used to select and connect to the first service \, and cycle through
the list of services \, respectively., f 45;
#X obj 30 209 route float;
#X connect 0 0 3 0;
#X connect 0 1 14 0;
#X connect 1 0 2 0;
#X connect 3 0 7 0;
#X connect 3 0 9 0;
#X connect 4 0 5 0;
#X connect 5 0 6 0;
#X connect 6 0 1 0;
#X connect 7 0 23 0;
#X connect 9 0 10 0;
#X connect 11 0 9 1;
#X connect 12 0 0 0;
#X connect 14 0 1 0;
#X connect 15 0 19 1;
#X connect 16 0 19 0;
#X connect 17 0 19 0;
#X connect 18 0 19 0;
#X connect 19 0 14 0;
#X connect 19 1 13 0;
#X connect 23 0 8 0;
