#N canvas 446 366 450 365 12;
#X obj 50 170 udpreceive 8000;
#X obj 152 230 route from;
#X obj 152 200 spigot;
#X msg 190 170 0;
#X msg 230 170 1;
#X obj 230 110 inlet;
#X obj 230 139 t b;
#X obj 50 199 outlet;
#X obj 152 317 outlet;
#X text 30 220 incoming OSC;
#X obj 152 259 t a b;
#X text 20 20 Basic TouchOSC helper abstraction which listens on UDP
port 8000 and outputs the sender's IP address in order for udpsend
to establish the back channel. NOTE: This assumes the standard TouchOSC
ports (8000 for incoming \, 9000 for outgoing messages on the host
side).;
#X msg 152 288 list \$1.\$2.\$3.\$4 9000;
#X connect 0 0 7 0;
#X connect 0 1 2 0;
#X connect 1 0 10 0;
#X connect 2 0 1 0;
#X connect 3 0 2 1;
#X connect 4 0 2 1;
#X connect 5 0 6 0;
#X connect 6 0 4 0;
#X connect 10 0 12 0;
#X connect 10 1 3 0;
#X connect 12 0 8 0;
